Coordinates
version=1
nRows=26
nColumns=24
inDegrees=yes

Units are S.I. units (second, meters, Newtons, ...)
Angles are in degrees.

endheader
time	pelvis_tilt	pelvis_list	pelvis_rotation	pelvis_tx	pelvis_ty	pelvis_tz	hip_flexion_r	hip_adduction_r	hip_rotation_r	knee_angle_r	ankle_angle_r	subtalar_angle_r	mtp_angle_r	hip_flexion_l	hip_adduction_l	hip_rotation_l	knee_angle_l	ankle_angle_l	subtalar_angle_l	mtp_angle_l	lumbar_extension	lumbar_bending	lumbar_rotation
      1.61466667	      1.33618795	      8.03564508	     -1.98206011	      0.54071131	      0.99556084	      0.26524505	     19.77123988	     -9.39855847	      3.03393014	    -63.36293792	      6.97137103	    -12.50745808	      2.69366352	      3.69339633	     14.45586623	      0.98769762	     -9.85270069	      3.62129911	    -13.32384953	     -1.19309705	      0.29009082	     -5.98358560	      3.77681371
      1.61883333	      1.40878715	      7.92814123	     -1.82559995	      0.54539164	      0.99597147	      0.26496468	     20.18395308	     -9.25763179	      2.98500324	    -62.69960144	      7.36655804	    -12.58487253	      2.52145142	      3.11937170	     14.38131351	      1.32728285	     -9.54795143	      3.65140662	    -13.46453742	     -1.25094273	      0.15600251	     -5.87646481	      3.56964698
      1.62300000	      1.47501997	      7.83294734	     -1.66751397	      0.55005327	      0.99633240	      0.26469746	     20.59484884	     -9.12958177	      2.93678743	    -62.00394391	      7.71564783	    -12.65267469	      2.33211163	      2.55927696	     14.31389720	      1.65682281	     -9.25134203	      3.68060957	    -13.59011206	     -1.31170377	      0.02679583	     -5.78243085	      3.36586197
      1.62716667	      1.55154849	      7.73402931	     -1.51042797	      0.55471462	      0.99667969	      0.26443980	     20.97747876	     -8.99944041	      2.88331695	    -61.26826454	      8.02977271	    -12.72367266	      2.14831452	      1.99274862	     14.23707593	      1.97091989	     -8.96163540	      3.72792115	    -13.69096237	     -1.36751156	     -0.11584799	     -5.68754145	      3.17529497
      1.63133333	      1.62284431	      7.63442067	     -1.34791991	      0.55937407	      0.99700138	      0.26418423	     21.34855520	     -8.87039723	      2.82249907	    -60.49280536	      8.30602827	    -12.80359639	      1.96499206	      1.43375504	     14.15418906	      2.28544987	     -8.67566436	      3.77920345	    -13.78875162	     -1.42023761	     -0.25283520	     -5.59077056	      2.97434955
      1.63550000	      1.69366854	      7.54774731	     -1.18846777	      0.56402019	      0.99725879	      0.26393650	     21.71468911	     -8.75724877	      2.76087226	    -59.69935150	      8.55155109	    -12.87349463	      1.77774448	      0.88340445	     14.08111096	      2.59101694	     -8.40098528	      3.83806288	    -13.87953858	     -1.47108011	     -0.39039941	     -5.50687613	      2.77614136
      1.63966667	      1.74513787	      7.47533113	     -1.02481286	      0.56864931	      0.99745394	      0.26369411	     22.09303722	     -8.66095413	      2.69926279	    -58.88039548	      8.76425421	    -12.94497180	      1.56505671	      0.35668656	     14.01817847	      2.90389579	     -8.12643657	      3.89000601	    -13.98494537	     -1.52547705	     -0.50747047	     -5.44027893	      2.56489423
      1.64383333	      1.74925380	      7.38414499	     -0.84177531	      0.57326142	      0.99756468	      0.26345133	     22.50091718	     -8.54479226	      2.62016382	    -58.02295251	      8.96439841	    -13.00534179	      1.46906006	     -0.08282152	     13.92508433	      3.16221711	     -7.92740132	      3.99736425	    -13.98022845	     -1.54614751	     -0.56571433	     -5.34911441	      2.46072869
      1.64800000	      1.81566688	      7.32963679	     -0.68654107	      0.57791387	      0.99771778	      0.26320919	     22.83758855	     -8.47607272	      2.55024632	    -57.14893489	      9.10611518	    -13.09487728	      1.09064499	     -0.64853417	     13.87633843	      3.50706185	     -7.60119274	      3.98039471	    -14.16276826	     -1.63540832	     -0.69023903	     -5.30475750	      2.14111915
      1.65216667	      1.86945995	      7.26035592	     -0.53819564	      0.58252346	      0.99781603	      0.26301779	     23.17573444	     -8.37698623	      2.49785642	    -56.24569030	      9.22983653	    -13.18738532	      0.91574113	     -1.15056289	     13.79966587	      3.74917735	     -7.37520952	      4.14285066	    -14.15010029	     -1.66885562	     -0.82321674	     -5.24080170	      1.99929548
      1.65633333	      1.88349382	      7.19268114	     -0.36351054	      0.58712542	      0.99784885	      0.26279356	     23.53535560	     -8.29172596	      2.41693248	    -55.31008237	      9.35606144	    -13.24874051	      0.81557580	     -1.59536065	     13.71977902	      3.99644525	     -7.17910032	      4.26048458	    -14.12965793	     -1.68537196	     -0.89212622	     -5.17314941	      1.87681197
      1.66050000	      1.91221467	      7.13757807	     -0.20394568	      0.59173043	      0.99784896	      0.26258630	     23.87384861	     -8.21960747	      2.34162609	    -54.36045792	      9.44509309	    -13.32672484	      0.70218955	     -2.06891362	     13.65163868	      4.25432911	     -6.95297601	      4.37442829	    -14.13592739	     -1.70341144	     -0.98636708	     -5.12073177	      1.68978088
      1.66466667	      1.95522222	      7.10080719	     -0.05655295	      0.59633497	      0.99784480	      0.26239463	     24.18759163	     -8.16606529	      2.27815077	    -53.39087856	      9.51469722	    -13.39904629	      0.57167063	     -2.56162950	     13.59971376	      4.50866664	     -6.71507459	      4.47530018	    -14.15572026	     -1.72407593	     -1.09438350	     -5.09382816	      1.48245177
      1.66883333	      1.96101851	      7.05675180	      0.09322614	      0.60094208	      0.99777305	      0.26221457	     24.52590556	     -8.10382515	      2.20720452	    -52.39728621	      9.57587864	    -13.46000990	      0.45015501	     -3.00515763	     13.53512570	      4.74884240	     -6.49472095	      4.58861986	    -14.15735392	     -1.74213852	     -1.16425538	     -5.05334953	      1.30561643
      1.67300000	      1.98037340	      7.03675652	      0.21651936	      0.60553182	      0.99764839	      0.26206626	     24.85481833	     -8.05926675	      2.16329812	    -51.40499268	      9.61572856	    -13.52043629	      0.24893167	     -3.47283047	     13.49576137	      4.98819897	     -6.24574002	      4.69367232	    -14.18722658	     -1.77414929	     -1.25759986	     -5.05510367	      1.05032705
      1.67716667	      1.92305107	      7.04151744	      0.33943790	      0.61011531	      0.99737790	      0.26192370	     25.26833557	     -8.03995220	      2.13324010	    -50.41760664	      9.70507822	    -13.51886227	      0.20833332	     -3.83106491	     13.47870638	      5.16621502	     -6.04639875	      4.82765984	    -14.09943896	     -1.77632906	     -1.23783087	     -5.07361340	      1.01088535
      1.68133333	      1.94923383	      6.98138671	      0.49681306	      0.61471406	      0.99727209	      0.26174913	     25.52625585	     -7.97409010	      2.01843541	    -49.33879497	      9.71761481	    -13.52909243	      0.09753410	     -4.27573134	     13.38692644	      5.38727340	     -5.87195395	      4.97675875	    -14.08864283	     -1.79149926	     -1.34548345	     -5.01374942	      0.81224911
      1.68550000	      1.94591224	      6.98115120	      0.60708677	      0.61930269	      0.99704833	      0.26162391	     25.84008435	     -7.94886758	      1.98501121	    -48.28760649	      9.74660747	    -13.52060067	     -0.08637417	     -4.70757464	     13.36157788	      5.60689894	     -5.64468364	      5.09086443	    -14.08202407	     -1.82253435	     -1.40397173	     -5.02409729	      0.55208194
      1.68966667	      1.92194971	      6.96919182	      0.72083729	      0.62389781	      0.99678259	      0.26150995	     26.15689726	     -7.91594307	      1.92894072	    -47.21211527	      9.78675244	    -13.46324223	     -0.24848589	     -5.10097608	     13.31965600	      5.79223873	     -5.44997733	      5.23112711	    -14.03417134	     -1.85107003	     -1.43568346	     -5.02121893	      0.41383282
      1.69383333	      1.84778419	      6.97957696	      0.81632848	      0.62849261	      0.99637503	      0.26141475	     26.53865087	     -7.89891241	      1.89919361	    -46.15919688	      9.86822970	    -13.41452497	     -0.28762270	     -5.43826848	     13.30233239	      5.94874496	     -5.25378396	      5.38214984	    -13.94629503	     -1.85481788	     -1.40032189	     -5.04503672	      0.36973656
      1.69800000	      1.83088674	      6.95854745	      0.93043259	      0.63310195	      0.99608522	      0.26131051	     26.80893215	     -7.86636182	      1.80777290	    -45.03218456	      9.88193455	    -13.28749504	     -0.35893196	     -5.82591322	     13.24619520	      6.10398596	     -5.08918754	      5.54177258	    -13.89703845	     -1.86872464	     -1.44416644	     -5.03009494	      0.22635557
      1.70216667	      1.81189664	      6.97105459	      1.01008462	      0.63771723	      0.99572979	      0.26123982	     27.09099811	     -7.85442029	      1.76468621	    -43.92170945	      9.92413430	    -13.10037404	     -0.48341107	     -6.23212765	     13.22758953	      6.27222524	     -4.87723522	      5.68353238	    -13.83851833	     -1.90256272	     -1.48907042	     -5.05572554	      0.01465883
      1.70633333	      1.71429462	      6.99382680	      1.08197632	      0.64231131	      0.99522734	      0.26121497	     27.45734826	     -7.83523658	      1.76060840	    -42.81550084	     10.00459817	    -13.00185569	     -0.50710325	     -6.53643070	     13.21973198	      6.42005234	     -4.69223804	      5.83609453	    -13.75524805	     -1.90680313	     -1.43816500	     -5.09932712	     -0.01895277
      1.71050000	      1.68710967	      6.98997457	      1.16848248	      0.64695014	      0.99482325	      0.26113123	     27.70717222	     -7.82238804	      1.66240963	    -41.65353240	     10.01746709	    -12.68528484	     -0.59245249	     -6.91705175	     13.18214085	      6.55865875	     -4.51884086	      6.00225179	    -13.70271001	     -1.94517116	     -1.46278268	     -5.09748088	     -0.20777457
      1.71466667	      1.60454584	      6.98592867	      1.24600832	      0.65158702	      0.99433383	      0.26109714	     28.00594534	     -7.78948534	      1.60400476	    -40.48194989	     10.07192521	    -12.47657234	     -0.62647335	     -7.23071069	     13.14322784	      6.68963551	     -4.35507269	      6.16464557	    -13.64342346	     -1.96430284	     -1.41924906	     -5.10264231	     -0.27428398
      1.71883333	      1.54387969	      6.98960530	      1.30510528	      0.65625482	      0.99383259	      0.26108376	     28.27052551	     -7.76284863	      1.54360608	    -39.30032943	     10.11281217	    -12.20076145	     -0.65018411	     -7.57844440	     13.11192974	      6.80858447	     -4.17117165	      6.33285639	    -13.56940778	     -1.98545332	     -1.39950552	     -5.10677485	     -0.36259247
